<?xml version="1.0"?>
<svg version="1.1" xmlns="http://www.w3.org/2000/svg" width="400" height="200" style=""><path fill="#f9e814" d="M17.3232421875,90.70703125q0-1.7900390625,0.09521484375-3.5419921875t0.32373046875-3.4658203125q0.15234375-0.8759765625,1.35205078125-1.2568359375t1.99951171875-0.380859375l0.9140625,0.076171875q1.1044921875,0.15234375,2.22802734375-0.15234375t2.22802734375-0.3046875q2.58984375,0,5.7890625,0.5712890625t5.99853515625,1.9423828125t4.70361328125,3.59912109375t1.904296875,5.50341796875t-1.98046875,6.11279296875t-4.9892578125,4.9892578125t-6.474609375,3.37060546875t-6.3603515625,1.21875q0.3046875,7.3505859375,0.85693359375,14.5869140625t1.88525390625,14.47265625l0.076171875,0.4951171875q0,0.533203125-0.47607421875,0.8759765625t-1.12353515625,0.55224609375t-1.31396484375,0.28564453125t-1.08544921875,0.076171875q-0.9521484375,0-2.30419921875-0.36181640625t-1.65673828125-1.42822265625q-0.8759765625-3.3515625-1.37109375-7.36962890625t-0.7236328125-8.39794921875t-0.32373046875-8.81689453125t-0.09521484375-8.66455078125l0-8.5693359375q0-1.4091796875-0.0380859375-2.9326171875t-0.0380859375-3.0849609375z M24.521484375,84.537109375q0,5.2177734375,0.1142578125,10.41650390625t0.2666015625,10.41650390625q2.2470703125-0.45703125,4.58935546875-1.61865234375t4.2275390625-2.76123046875t3.046875-3.63720703125t1.16162109375-4.28466796875q0-2.0185546875-1.00927734375-3.6181640625t-2.60888671875-2.7421875q-1.5615234375-1.1044921875-3.5419921875-1.7138671875q-1.751953125-0.533203125-3.427734375-0.533203125l-0.4189453125,0z M52.654423828125,124.7939453125q0-2.58984375,0.70458984375-4.9892578125t2.11376953125-4.28466796875t3.52294921875-3.0087890625t4.89404296875-1.12353515625q1.7138671875,0,3.78955078125,0.51416015625t3.90380859375,1.5234375t3.046875,2.57080078125t1.21875,3.580078125q0,0.9521484375-0.32373046875,1.447265625t-1.31396484375,0.4951171875l-0.4189453125-0.076171875q1.1044921875,2.970703125,1.904296875,6.09375t1.5615234375,6.24609375q0.3046875,0.609375,0.45703125,1.08544921875t0.15234375,0.93310546875q0,0.609375-0.3427734375,1.00927734375t-0.89501953125,0.59033203125t-1.142578125,0.2666015625t-1.04736328125,0.076171875q-1.6376953125,0-2.45654296875-0.5712890625t-1.1806640625-1.5615234375t-0.43798828125-2.22802734375t-0.3046875-2.49462890625q-0.45703125,1.4853515625-1.19970703125,2.89453125t-1.751953125,2.53271484375t-2.38037109375,1.7900390625t-3.0849609375,0.66650390625q-2.513671875,0-4.2275390625-1.447265625t-2.76123046875-3.56103515625t-1.5234375-4.51318359375t-0.47607421875-4.4560546875z M58.062626953125,124.2607421875q0,1.4091796875,0.1904296875,2.970703125t0.62841796875,3.0849609375t1.12353515625,2.87548828125t1.7138671875,2.38037109375q1.8662109375-2.0185546875,2.76123046875-4.9130859375t1.599609375-5.57958984375t1.599609375-4.6083984375t2.76123046875-1.92333984375q1.1806640625,0,1.98046875,0.4189453125q-0.380859375-0.9521484375-1.2568359375-1.84716796875t-1.96142578125-1.6376953125t-2.2470703125-1.21875t-2.18994140625-0.47607421875q-0.3046875,0-0.70458984375,0.09521484375t-0.62841796875,0.01904296875q-1.5615234375,0.45703125-2.57080078125,1.58056640625t-1.6376953125,2.64697265625t-0.89501953125,3.123046875t-0.2666015625,3.0087890625z M85.66236328125,111.0068359375q0-1.7900390625,0.70458984375-2.64697265625t2.57080078125-0.85693359375q1.1044921875,0,2.07568359375,0.45703125t0.97119140625,1.9423828125q0.15234375,2.1708984375,0.15234375,4.55126953125t0.4189453125,4.51318359375q0.9521484375-1.5615234375,2.15185546875-3.123046875t2.64697265625-2.7802734375t3.1611328125-1.96142578125t3.732421875-0.74267578125q2.7421875,0,4.646484375,1.142578125t3.14208984375,2.970703125t1.7900390625,4.13232421875t0.55224609375,4.62744140625q0,3.580078125-1.08544921875,5.84619140625t-2.87548828125,3.56103515625t-4.05615234375,1.751953125t-4.55126953125,0.45703125q-2.0185546875,0-3.7705078125-0.78076171875t-2.4375-2.95166015625q0-0.609375,0.89501953125-0.76171875t1.27587890625-0.15234375q1.2568359375,0,1.8662109375,0.685546875q0.45703125,0.533203125,1.00927734375,1.08544921875t1.16162109375,0.55224609375q1.1806640625,0,2.4755859375-0.66650390625t2.38037109375-1.751953125t1.828125-2.57080078125t0.74267578125-3.046875q0-1.3330078125-0.228515625-3.3134765625t-0.78076171875-3.80859375t-1.5234375-3.1611328125t-2.45654296875-1.3330078125q-2.2470703125,0-4.05615234375,2.056640625t-3.0087890625,4.951171875t-1.8662109375,6.017578125t-0.66650390625,5.2177734375t0.2666015625,5.2939453125t0.55224609375,6.64599609375t0.55224609375,6.64599609375t0.2666015625,5.2939453125q0,0.533203125-0.43798828125,0.85693359375t-1.04736328125,0.51416015625t-1.23779296875,0.228515625t-0.93310546875,0.0380859375q-1.0283203125,0-2.15185546875-0.228515625t-1.54248046875-1.4091796875q-0.533203125-1.8662109375-0.990234375-5.31298828125t-0.81884765625-7.6171875t-0.62841796875-8.759765625t-0.45703125-8.85498046875t-0.28564453125-7.8076171875t-0.09521484375-5.63671875z M122.17420898437,123.8798828125q0-3.50390625,0.81884765625-6.87451171875t1.39013671875-6.72216796875q0.15234375-0.8759765625,1.19970703125-1.08544921875t1.77099609375-0.20947265625q1.2568359375,0,2.0185546875,0.380859375q0.3046875,0.15234375,0.5712890625,0.3427734375t0.2666015625,0.4951171875q0,3.275390625-0.78076171875,6.3984375t-0.78076171875,6.626953125q0,1.1806640625,0.17138671875,2.22802734375t0.32373046875,2.07568359375l0.228515625,1.1044921875q0,0.3046875,0.0380859375,0.533203125t0.1142578125,0.533203125q0,0.685546875-0.97119140625,0.93310546875t-1.69482421875,0.24755859375q-1.1044921875,0-2.03759765625-0.43798828125t-1.46630859375-1.50439453125l-0.533203125-1.1044921875q-0.45703125-0.8759765625-0.45703125-1.96142578125t-0.1904296875-1.99951171875z M124.61170898437,100.9521484375l0-0.7236328125q0-1.7900390625,0.89501953125-3.19921875t2.68505859375-1.4091796875q0.228515625,0,0.43798828125,0.0380859375t0.43798828125,0.0380859375q0.45703125,0.076171875,1.19970703125,0.36181640625t0.74267578125,0.89501953125l0,0.076171875q-0.15234375,0.3046875-0.1904296875,0.62841796875t-0.1904296875,0.55224609375l0.076171875-0.076171875q-0.45703125,1.1806640625-0.74267578125,1.904296875t-0.62841796875,1.16162109375t-0.85693359375,0.62841796875t-1.46630859375,0.1904296875q-0.15234375,0-0.533203125-0.0380859375t-0.81884765625-0.15234375t-0.74267578125-0.3046875t-0.3046875-0.5712890625z M138.8051953125,124.7939453125q0-2.58984375,0.70458984375-4.9892578125t2.11376953125-4.28466796875t3.52294921875-3.0087890625t4.89404296875-1.12353515625q1.7138671875,0,3.78955078125,0.51416015625t3.90380859375,1.5234375t3.046875,2.57080078125t1.21875,3.580078125q0,0.9521484375-0.32373046875,1.447265625t-1.31396484375,0.4951171875l-0.4189453125-0.076171875q1.1044921875,2.970703125,1.904296875,6.09375t1.5615234375,6.24609375q0.3046875,0.609375,0.45703125,1.08544921875t0.15234375,0.93310546875q0,0.609375-0.3427734375,1.00927734375t-0.89501953125,0.59033203125t-1.142578125,0.2666015625t-1.04736328125,0.076171875q-1.6376953125,0-2.45654296875-0.5712890625t-1.1806640625-1.5615234375t-0.43798828125-2.22802734375t-0.3046875-2.49462890625q-0.45703125,1.4853515625-1.19970703125,2.89453125t-1.751953125,2.53271484375t-2.38037109375,1.7900390625t-3.0849609375,0.66650390625q-2.513671875,0-4.2275390625-1.447265625t-2.76123046875-3.56103515625t-1.5234375-4.51318359375t-0.47607421875-4.4560546875z M144.2133984375,124.2607421875q0,1.4091796875,0.1904296875,2.970703125t0.62841796875,3.0849609375t1.12353515625,2.87548828125t1.7138671875,2.38037109375q1.8662109375-2.0185546875,2.76123046875-4.9130859375t1.599609375-5.57958984375t1.599609375-4.6083984375t2.76123046875-1.92333984375q1.1806640625,0,1.98046875,0.4189453125q-0.380859375-0.9521484375-1.2568359375-1.84716796875t-1.96142578125-1.6376953125t-2.2470703125-1.21875t-2.18994140625-0.47607421875q-0.3046875,0-0.70458984375,0.09521484375t-0.62841796875,0.01904296875q-1.5615234375,0.45703125-2.57080078125,1.58056640625t-1.6376953125,2.64697265625t-0.89501953125,3.123046875t-0.2666015625,3.0087890625z M171.90834960937,115.25341796875q-0.09521484375-1.27587890625,0.15234375-2.34228515625t0.990234375-1.73291015625t2.38037109375-0.66650390625q0.380859375,0,0.93310546875,0.09521484375t1.08544921875,0.24755859375t0.89501953125,0.45703125t0.36181640625,0.837890625l0,4.3037109375q1.4853515625-1.7138671875,3.2373046875-2.45654296875t3.9990234375-0.74267578125q1.7138671875,0,3.3896484375,0.78076171875t3.1611328125,2.07568359375t2.57080078125,2.8564453125t1.58056640625,3.123046875q0.3046875-1.4091796875,0.685546875-3.44677734375t1.12353515625-3.90380859375t1.96142578125-3.19921875t3.2373046875-1.3330078125q2.1708984375,0,3.65625,1.5615234375t2.41845703125,4.05615234375t1.4091796875,5.57958984375t0.70458984375,6.09375t0.228515625,5.61767578125l0,4.09423828125q0,0.45703125-0.3427734375,0.74267578125t-0.85693359375,0.43798828125t-1.06640625,0.1904296875t-0.85693359375,0.0380859375q-1.1806640625,0-2.15185546875-0.36181640625t-0.97119140625-1.84716796875l0-3.427734375t-0.076171875-4.43701171875t-0.2666015625-4.7607421875t-0.4951171875-4.32275390625t-0.78076171875-3.123046875t-1.16162109375-1.21875q-0.9521484375,0-1.37109375,1.06640625t-0.70458984375,2.7041015625t-0.43798828125,3.4658203125t-0.4189453125,3.4658203125t-0.85693359375,2.68505859375t-1.61865234375,1.04736328125q-1.1044921875,0-1.9423828125-1.04736328125t-1.65673828125-2.60888671875t-1.6376953125-3.3515625t-1.80908203125-3.3515625q-0.990234375-1.599609375-2.1328125-2.58984375q-1.0283203125-0.9521484375-2.3232421875-0.9140625l-0.1904296875,0q-1.7138671875,0.076171875-2.68505859375,1.23779296875t-1.4853515625,2.83740234375t-0.62841796875,3.59912109375t-0.1142578125,3.37060546875q0,1.37109375,0.228515625,3.19921875q0.15234375,1.21875,0.15234375,2.3232421875q0,0.5712890625-0.0380859375,1.1044921875q-0.1142578125,1.599609375-0.85693359375,2.68505859375t-2.76123046875,1.08544921875q-0.76171875,0-1.904296875-0.15234375t-1.5234375-1.0283203125q-0.8759765625-1.5615234375-1.3330078125-3.94189453125t-0.685546875-4.9130859375t-0.2666015625-5.02734375t-0.0380859375-4.28466796875q0-1.2568359375-0.09521484375-2.53271484375z M219.94119140625,126.35546875q0-2.666015625,0.59033203125-6.2841796875t1.99951171875-6.85546875t3.71337890625-5.50341796875t5.80810546875-2.26611328125q3.275390625,0,4.9130859375,1.88525390625t1.6376953125,5.08447265625q0,2.0947265625-0.78076171875,4.58935546875t-2.22802734375,4.72265625t-3.427734375,3.71337890625t-4.41796875,1.4853515625l-0.990234375-0.076171875q0,1.0283203125,0.3046875,2.76123046875t0.89501953125,3.44677734375t1.5234375,3.0087890625t2.26611328125,1.294921875q1.9423828125,0,3.732421875-1.5615234375t3.3896484375-3.4658203125t2.970703125-3.4658203125t2.513671875-1.5615234375q0.609375,0,1.2568359375,0.1904296875t0.7236328125,1.06640625q0,0.533203125-0.28564453125,0.8759765625t-0.51416015625,0.76171875q-1.1806640625,2.0185546875-2.57080078125,3.8466796875t-3.14208984375,3.3134765625t-3.82763671875,2.34228515625t-4.58935546875,0.85693359375q-3.275390625,0-5.4462890625-1.16162109375t-3.50390625-3.123046875t-1.92333984375-4.5322265625t-0.59033203125-5.38916015625z M226.75857421875,123.4609375l1.06640625,0.9521484375q0.76171875,0.685546875,1.5234375,0.3046875t1.37109375-1.39013671875t1.12353515625-2.49462890625t0.9140625-3.046875t0.59033203125-3.046875t0.1904296875-2.4755859375l0-1.294921875t-0.1142578125-1.37109375t-0.39990234375-1.08544921875t-0.89501953125-0.55224609375q-0.1904296875-0.0380859375-0.3427734375-0.0380859375q-1.294921875,0-2.208984375,1.6376953125q-0.990234375,1.828125-1.599609375,4.43701171875t-0.8759765625,5.35107421875t-0.3427734375,4.11328125z M251.80655273438,124.984375l0-1.1044921875q0-1.37109375,0.076171875-2.58984375q0.076171875-1.7138671875,0.076171875-2.818359375q0-0.609375,0.076171875-1.39013671875t0.380859375-1.23779296875q0.380859375-0.380859375,0.89501953125-0.78076171875t1.12353515625-0.39990234375q1.9423828125,0,3.046875,0.43798828125t1.1806640625,1.80908203125l0.15234375,1.1806640625q0.685546875-1.6376953125,1.828125-4.05615234375t2.64697265625-4.6083984375t3.3896484375-3.732421875t3.97998046875-1.54248046875q1.9423828125,0,3.19921875,1.828125t1.99951171875,4.66552734375t1.04736328125,6.322265625t0.4189453125,6.83642578125t0.15234375,6.11279296875t0.2666015625,4.17041015625q0.15234375,1.1806640625,0.51416015625,2.49462890625t0.36181640625,2.41845703125q0,0.3046875-0.43798828125,0.59033203125t-0.93310546875,0.47607421875t-1.00927734375,0.3046875t-0.74267578125,0.1142578125q-1.4853515625,0-2.11376953125-2.22802734375t-0.78076171875-5.57958984375t-0.15234375-7.25537109375t-0.2666015625-7.25537109375t-1.08544921875-5.57958984375t-2.60888671875-2.30419921875q-1.6376953125,0-3.3896484375,2.11376953125t-3.0087890625,5.61767578125q-1.21875,3.50390625-1.67578125,7.9599609375q-0.15234375,1.4091796875-0.15234375,2.818359375q0,3.0849609375,0.6474609375,6.169921875q0.076171875,0.533203125-0.43798828125,0.7998046875t-1.27587890625,0.4189453125t-1.54248046875,0.1904296875t-1.19970703125,0.0380859375q-1.4853515625,0-2.38037109375-1.04736328125t-1.39013671875-2.68505859375t-0.66650390625-3.67529296875t-0.20947265625-4.01806640625z M284.852578125,100.609375q0-0.533203125,1.142578125-0.9140625t2.58984375-0.62841796875t2.79931640625-0.36181640625t1.84716796875-0.1904296875q0-1.0283203125,0.076171875-2.07568359375t0.4189453125-1.8662109375t1.08544921875-1.31396484375t2.07568359375-0.4951171875q1.1044921875,0,1.67578125,0.2666015625t1.21875,1.1044921875q0.15234375,0.45703125,0.15234375,0.8759765625l0,1.27587890625t-0.076171875,1.31396484375q1.4091796875-0.15234375,2.79931640625-0.36181640625t2.79931640625-0.20947265625q1.0283203125,0,1.4091796875,0.0380859375t0.76171875,0.9140625q0.3046875,0.8759765625-0.74267578125,1.3330078125t-2.513671875,0.685546875t-2.91357421875,0.3427734375t-1.751953125,0.1142578125q-0.45703125,6.55078125-0.93310546875,12.9873046875t-0.47607421875,13.0634765625q0,2.970703125,0.1904296875,6.1318359375t1.06640625,5.9794921875q0.228515625,0.8759765625,0.76171875,1.6376953125t0.533203125,1.6376953125q0,0.533203125-0.4189453125,0.837890625t-1.00927734375,0.51416015625t-1.1806640625,0.24755859375t-0.97119140625,0.0380859375q-2.3994140625,0-3.65625-1.7900390625t-1.80908203125-4.28466796875t-0.59033203125-5.12255859375t-0.0380859375-4.265625q0-3.3515625,0.13330078125-6.85546875t0.32373046875-6.931640625t0.533203125-6.703125t0.7998046875-6.09375q-1.3330078125,0.15234375-2.60888671875,0.3427734375t-2.60888671875,0.1904296875q-0.3046875,0-0.81884765625-0.0380859375t-0.97119140625-0.1904296875t-0.78076171875-0.4189453125t-0.32373046875-0.76171875z M312.41422851562,121.4423828125q0-0.76171875,0.17138671875-2.0185546875t0.39990234375-2.49462890625t0.533203125-2.30419921875t0.7236328125-1.37109375q0.3046875-0.3046875,1.04736328125-0.609375t1.5615234375-0.43798828125t1.5234375,0.1142578125t0.85693359375,1.00927734375q-0.533203125,0.685546875-0.97119140625,2.34228515625t-0.66650390625,3.67529296875q-0.1904296875,1.7138671875-0.1904296875,3.5419921875l0,0.6474609375q0.0380859375,2.1328125,0.380859375,3.9228515625t1.04736328125,2.95166015625t1.96142578125,1.16162109375q2.666015625,0,4.875-2.45654296875t3.9228515625-5.99853515625t3.0087890625-7.52197265625t2.208984375-6.95068359375q0.228515625-0.8759765625,1.08544921875-1.1806640625t1.84716796875-0.20947265625t1.77099609375,0.47607421875t0.93310546875,0.9140625q-0.76171875,6.3984375-1.19970703125,12.796875t-0.43798828125,12.873046875q0,1.2568359375,0.1142578125,2.30419921875t-0.1142578125,1.7900390625t-1.00927734375,1.1806640625t-2.49462890625,0.43798828125q-0.380859375,0-0.97119140625-0.076171875t-1.21875-0.24755859375t-1.06640625-0.51416015625t-0.43798828125-0.7998046875q0-2.818359375,0.20947265625-5.7890625t0.59033203125-5.7509765625q-1.0283203125,1.4853515625-2.26611328125,2.95166015625t-2.72314453125,2.64697265625t-3.19921875,1.88525390625t-3.6943359375,0.70458984375q-2.818359375,0-4.43701171875-1.3330078125t-2.4375-3.33251953125t-1.0283203125-4.36083984375t-0.20947265625-4.5703125z"/><path fill="#f9e814" d="M352.03837890625,113.220703125q0-0.341796875,0.041015625-0.6904296875t0.041015625-0.6904296875l0-0.21875q0-0.423828125,0.3486328125-0.533203125t0.7177734375-0.109375q0.423828125,0,0.8134765625,0.177734375t0.3896484375,0.68359375q0.08203125,0.24609375,0.08203125,0.587890625l0,0.642578125q0,0.478515625-0.3349609375,0.6630859375t-0.8955078125,0.1845703125q-0.396484375,0-0.7998046875-0.1435546875t-0.4033203125-0.5537109375z M357.5846484375,108.572265625q0-1.2578125,0.2939453125-2.4677734375t0.4990234375-2.4130859375q0.0546875-0.314453125,0.4306640625-0.3896484375t0.6357421875-0.0751953125q0.451171875,0,0.724609375,0.13671875q0.109375,0.0546875,0.205078125,0.123046875t0.095703125,0.177734375q0,1.17578125-0.2802734375,2.296875t-0.2802734375,2.37890625q0,0.423828125,0.0615234375,0.7998046875t0.1162109375,0.7451171875l0.08203125,0.396484375q0,0.109375,0.013671875,0.19140625t0.041015625,0.19140625q0,0.24609375-0.3486328125,0.3349609375t-0.6083984375,0.0888671875q-0.396484375,0-0.7314453125-0.1572265625t-0.5263671875-0.5400390625l-0.19140625-0.396484375q-0.1640625-0.314453125-0.1640625-0.7041015625t-0.068359375-0.7177734375z M358.4596484375,100.341796875l0-0.259765625q0-0.642578125,0.3212890625-1.1484375t0.9638671875-0.505859375q0.08203125,0,0.1572265625,0.013671875t0.1572265625,0.013671875q0.1640625,0.02734375,0.4306640625,0.1298828125t0.2666015625,0.3212890625l0,0.02734375q-0.0546875,0.109375-0.068359375,0.2255859375t-0.068359375,0.1982421875l0.02734375-0.02734375q-0.1640625,0.423828125-0.2666015625,0.68359375t-0.2255859375,0.4169921875t-0.3076171875,0.2255859375t-0.5263671875,0.068359375q-0.0546875,0-0.19140625-0.013671875t-0.2939453125-0.0546875t-0.2666015625-0.109375t-0.109375-0.205078125z M363.56841796875,108.96875l0-0.396484375q0-0.4921875,0.02734375-0.9296875q0.02734375-0.615234375,0.02734375-1.01171875q0-0.21875,0.02734375-0.4990234375t0.13671875-0.4443359375q0.13671875-0.13671875,0.3212890625-0.2802734375t0.4033203125-0.1435546875q0.697265625,0,1.09375,0.1572265625t0.423828125,0.6494140625l0.0546875,0.423828125q0.24609375-0.587890625,0.65625-1.4560546875t0.9501953125-1.654296875t1.216796875-1.33984375t1.4287109375-0.5537109375q0.697265625,0,1.1484375,0.65625t0.7177734375,1.6748046875t0.3759765625,2.26953125t0.150390625,2.4541015625t0.0546875,2.1943359375t0.095703125,1.4970703125q0.0546875,0.423828125,0.1845703125,0.8955078125t0.1298828125,0.8681640625q0,0.109375-0.1572265625,0.2119140625t-0.3349609375,0.1708984375t-0.3623046875,0.109375t-0.2666015625,0.041015625q-0.533203125,0-0.7587890625-0.7998046875t-0.2802734375-2.0029296875t-0.0546875-2.6044921875t-0.095703125-2.6044921875t-0.3896484375-2.0029296875t-0.9365234375-0.8271484375q-0.587890625,0-1.216796875,0.7587890625t-1.080078125,2.0166015625q-0.4375,1.2578125-0.6015625,2.857421875q-0.0546875,0.505859375-0.0546875,1.01171875q0,1.107421875,0.232421875,2.21484375q0.02734375,0.19140625-0.1572265625,0.287109375t-0.4580078125,0.150390625t-0.5537109375,0.068359375t-0.4306640625,0.013671875q-0.533203125,0-0.8544921875-0.3759765625t-0.4990234375-0.9638671875t-0.2392578125-1.3193359375t-0.0751953125-1.4423828125z M375.991640625,103.185546875q0-0.13671875,0.2119140625-0.232421875t0.505859375-0.13671875t0.560546875-0.068359375t0.4033203125-0.02734375q0.0546875-0.369140625,0.1572265625-0.998046875t0.2529296875-1.3466796875t0.3759765625-1.4423828125t0.546875-1.3125t0.7587890625-0.9638671875t1.025390625-0.3759765625l-0.02734375,0q0.19140625-0.02734375,0.3759765625-0.041015625t0.3759765625-0.013671875q0.451171875,0,0.9775390625,0.177734375t0.9775390625,0.4990234375t0.7587890625,0.7724609375t0.3076171875,0.95703125q0,0.396484375-0.1982421875,0.8544921875t-0.6904296875,0.4580078125q-0.1640625,0-0.3349609375-0.08203125t-0.3212890625-0.177734375q0.0546875-0.314453125,0.0546875-0.62890625q0-0.1640625-0.013671875-0.314453125q-0.041015625-0.478515625-0.205078125-0.8408203125t-0.4716796875-0.57421875t-0.7314453125-0.1572265625q-0.560546875,0.08203125-0.8408203125,0.68359375t-0.3896484375,1.4287109375t-0.13671875,1.681640625t-0.109375,1.3876953125q0.642578125,0.0546875,1.0869140625,0.0546875l1.1142578125,0q0.109375,0,0.3759765625,0.013671875t0.51953125,0.0546875t0.451171875,0.1435546875t0.1982421875,0.2666015625q0,0.13671875-0.109375,0.2392578125t-0.2666015625,0.1435546875t-0.328125,0.0546875t-0.2802734375,0.013671875q-0.478515625,0-0.8134765625-0.041015625t-0.642578125-0.0751953125t-0.642578125-0.0341796875t-0.7861328125,0.095703125q-0.13671875,1.517578125-0.21875,3.0078125t-0.08203125,3.0078125q0,2.37890625,0.150390625,4.662109375t0.546875,4.634765625q0.0546875,0.21875,0.095703125,0.4990234375t0.041015625,0.5400390625q0,0.24609375-0.150390625,0.4033203125t-0.3759765625,0.2255859375t-0.46484375,0.095703125t-0.4306640625,0.02734375q-0.779296875,0-1.09375-0.2392578125t-0.451171875-0.9638671875q-0.341796875-1.927734375-0.4375-3.8896484375t-0.095703125-3.9580078125q0-1.955078125,0.1435546875-3.9033203125t0.3623046875-3.8759765625q-0.109375,0-0.3759765625,0.013671875t-0.533203125,0t-0.46484375-0.095703125t-0.1982421875-0.287109375z M385.80353515625,109.16015625q0-0.779296875,0.1982421875-1.6064453125t0.62890625-1.490234375t1.0869140625-1.080078125t1.5859375-0.4169921875q0.697265625,0,1.4697265625,0.2392578125t1.4150390625,0.68359375t1.0458984375,1.0869140625t0.4033203125,1.435546875q0,0.95703125-0.3486328125,1.818359375t-0.9775390625,1.5380859375t-1.4697265625,1.06640625t-1.8251953125,0.3896484375q-0.806640625,0-1.408203125-0.2939453125t-1.0048828125-0.7861328125t-0.6015625-1.162109375t-0.1982421875-1.421875z M387.81330078125,109.1328125q0,0.24609375,0.0751953125,0.724609375t0.2255859375,0.9365234375t0.3896484375,0.79296875t0.5810546875,0.3076171875q0.724609375-0.08203125,1.1962890625-0.4716796875t0.765625-0.9501953125t0.41015625-1.216796875t0.1162109375-1.244140625q0-0.751953125-0.2939453125-1.2578125t-0.9638671875-0.8203125q0,0.02734375,0.02734375,0.02734375t0.02734375-0.02734375l-0.341796875-0.08203125q-0.13671875-0.0546875-0.3349609375-0.123046875t-0.3896484375-0.30078125q-0.533203125,0.19140625-0.8271484375,0.4921875t-0.4443359375,0.7314453125t-0.1845703125,1.0322265625t-0.0341796875,1.44921875z"/></svg>
