<?xml version="1.0" encoding="UTF-8" standalone="no"?>
<svg
   xmlns:dc="http://purl.org/dc/elements/1.1/"
   xmlns:cc="http://creativecommons.org/ns#"
   xmlns:rdf="http://www.w3.org/1999/02/22-rdf-syntax-ns#"
   xmlns:svg="http://www.w3.org/2000/svg"
   xmlns="http://www.w3.org/2000/svg"
   xmlns:xlink="http://www.w3.org/1999/xlink"
   xmlns:sodipodi="http://sodipodi.sourceforge.net/DTD/sodipodi-0.dtd"
   xmlns:inkscape="http://www.inkscape.org/namespaces/inkscape"
   version="1.1"
   width="400"
   height="200"
   style=""
   id="svg6"
   sodipodi:docname="new_logo.svg"
   inkscape:version="1.0 (4035a4fb49, 2020-05-01)">
  <metadata
     id="metadata12">
    <rdf:RDF>
      <cc:Work
         rdf:about="">
        <dc:format>image/svg+xml</dc:format>
        <dc:type
           rdf:resource="http://purl.org/dc/dcmitype/StillImage" />
        <dc:title />
      </cc:Work>
    </rdf:RDF>
  </metadata>
  <defs
     id="defs10" />
  <sodipodi:namedview
     inkscape:document-rotation="0"
     pagecolor="#ffffff"
     bordercolor="#666666"
     borderopacity="1"
     objecttolerance="10"
     gridtolerance="10"
     guidetolerance="10"
     inkscape:pageopacity="0"
     inkscape:pageshadow="2"
     inkscape:window-width="1920"
     inkscape:window-height="1016"
     id="namedview8"
     showgrid="false"
     inkscape:pagecheckerboard="true"
     inkscape:zoom="0.82375"
     inkscape:cx="200"
     inkscape:cy="100"
     inkscape:window-x="0"
     inkscape:window-y="27"
     inkscape:window-maximized="1"
     inkscape:current-layer="svg6" />
  <g
     fill="#ffffff"
     id="s"
     transform="matrix(6.0160296,0,0,6.0160296,79.142202,-16.848814)">
    <g
       id="f">
      <g
         id="t">
        <path
           d="m 12,8 v 4 h 2 z"
           transform="rotate(18,12,8)"
           id="o" />
        <use
           height="100%"
           width="100%"
           y="0"
           xlink:href="#o"
           x="-24"
           transform="scale(-1,1)"
           id="use906" />
      </g>
      <use
         height="100%"
         width="100%"
         y="0"
         x="0"
         xlink:href="#t"
         transform="rotate(72,12,12)"
         id="use909" />
    </g>
    <use
       height="100%"
       width="100%"
       y="0"
       x="0"
       xlink:href="#t"
       transform="rotate(-72,12,12)"
       id="use912" />
    <use
       height="100%"
       width="100%"
       y="0"
       x="0"
       xlink:href="#f"
       transform="rotate(144,12,12)"
       id="use914" />
  </g>
  <use
     height="100%"
     width="100%"
     xlink:href="#s"
     x="-4"
     y="-4"
     transform="matrix(0.75000001,0,0,0.75000001,3.181305,-13.597211)"
     id="use917" />
  <path
     fill="#f9e814"
     d="m 5.4121803,49.391366 q 0,-3.020565 0.09521,-5.976864 0.09521,-2.956298 0.32373,-5.84833 0.152344,-1.478148 1.352051,-2.120823 1.199707,-0.642673 1.999512,-0.642673 l 0.9140617,0.128535 q 1.104493,0.257069 2.228028,-0.257069 1.123535,-0.514139 2.228027,-0.514139 2.589844,0 5.789063,0.96401 3.199218,0.964011 5.998535,3.277636 2.799316,2.313624 4.703613,6.073265 1.904297,3.759641 1.904297,9.286633 0,5.526993 -1.980469,10.314911 -1.980469,4.787918 -4.989258,8.419023 -3.008789,3.631106 -6.474609,5.687662 -3.46582,2.056555 -6.360352,2.056555 0.304688,12.403597 0.856934,24.614402 0.552246,12.2108 1.885254,24.42159 l 0.07617,0.83548 q 0,0.89974 -0.476074,1.47815 -0.476075,0.57841 -1.123536,0.93188 -0.64746,0.35347 -1.313964,0.48201 -0.666504,0.12853 -1.08545,0.12853 -0.952148,0 -2.3041987,-0.61054 -1.352051,-0.61054 -1.656738,-2.41003 -0.875977,-5.65553 -1.371094,-12.43573 -0.495117,-6.78021 -0.723633,-14.17095 -0.228515,-7.390755 -0.32373,-14.877902 -0.09521,-7.487147 -0.09521,-14.620823 V 59.545609 q 0,-2.377892 -0.03809,-4.948586 -0.03809,-2.570695 -0.03809,-5.205657 z M 12.610422,38.980054 q 0,8.804628 0.114258,17.577123 0.114258,8.772494 0.266602,17.577122 2.24707,-0.771208 4.589355,-2.731362 2.342285,-1.960155 4.227539,-4.659384 1.885254,-2.699229 3.046875,-6.137532 1.161621,-3.438304 1.161621,-7.230078 0,-3.406171 -1.009277,-6.105399 -1.009277,-2.699229 -2.608887,-4.62725 -1.561523,-1.863753 -3.541992,-2.892032 -1.751953,-0.899742 -3.427734,-0.899742 h -0.418946 z m 28.13294,67.930596 q 0,-4.37017 0.70459,-8.419025 0.70459,-4.04884 2.113769,-7.23008 1.40918,-3.181229 3.522949,-5.077116 2.11377,-1.895887 4.894043,-1.895887 1.713868,0 3.789551,0.867609 2.075684,0.86761 3.903809,2.570695 1.828125,1.703085 3.046875,4.338049 1.21875,2.63496 1.21875,6.04113 0,1.60668 -0.323731,2.442165 -0.32373,0.83547 -1.313965,0.83547 l -0.418945,-0.12853 q 1.104492,5.01285 1.904297,10.28278 0.799805,5.26992 1.561523,10.53984 0.304688,1.02828 0.457032,1.83162 0.152343,0.80334 0.152343,1.57455 0,1.02828 -0.342773,1.70309 -0.342773,0.6748 -0.89502,0.99614 -0.552246,0.32134 -1.142578,0.44987 -0.590332,0.12853 -1.047363,0.12853 -1.637695,0 -2.456543,-0.96401 -0.818848,-0.96401 -1.180664,-2.63496 -0.361816,-1.67095 -0.437988,-3.75963 -0.07617,-2.08869 -0.304688,-4.20951 -0.457031,2.50642 -1.199707,4.88431 -0.742676,2.37789 -1.751953,4.27378 -1.009277,1.89589 -2.380371,3.02056 -1.371094,1.12468 -3.084961,1.12468 -2.513672,0 -4.227539,-2.44216 -1.713867,-2.44215 -2.76123,-6.00899 -1.047364,-3.56684 -1.523438,-7.61568 -0.476074,-4.04885 -0.476074,-7.51929 z m 5.408203,-0.89974 q 0,2.37789 0.19043,5.01285 0.190429,2.63497 0.628418,5.20567 0.437988,2.57069 1.123535,4.85218 0.685547,2.28149 1.713867,4.01671 1.866211,-3.40617 2.76123,-8.29049 0.89502,-4.88431 1.59961,-9.41517 0.70459,-4.53085 1.599609,-7.776355 0.89502,-3.2455 2.761231,-3.2455 1.180664,0 1.980468,0.70694 -0.380859,-1.60668 -1.256836,-3.11697 -0.875976,-1.51028 -1.961425,-2.763493 -1.08545,-1.253212 -2.247071,-2.056555 -1.161621,-0.803342 -2.189941,-0.803342 -0.304688,0 -0.70459,0.160669 -0.399902,0.160668 -0.628418,0.03213 -1.561523,0.771208 -2.570801,2.667095 -1.009277,1.895886 -1.637695,4.466586 -0.628418,2.57069 -0.895019,5.269925 -0.266602,2.69923 -0.266602,5.07712 z M 73.751301,83.645869 q 0,-3.020567 0.70459,-4.466582 0.70459,-1.446015 2.570801,-1.446015 1.104492,0 2.075683,0.771207 0.971192,0.771209 0.971192,3.277636 0.152344,3.66324 0.152344,7.67995 0,4.01671 0.418945,7.61568 0.952148,-2.63496 2.151855,-5.26992 1.199707,-2.634964 2.646973,-4.69152 1.447266,-2.056555 3.161134,-3.309768 1.71387,-1.253214 3.73242,-1.253214 2.74219,0 4.64649,1.928021 1.90429,1.928021 3.142082,5.012854 1.2378,3.084837 1.79004,6.973007 0.55225,3.888185 0.55225,7.808485 0,6.04113 -1.08545,9.86505 -1.08545,3.8239 -2.875492,6.00899 -1.79004,2.18509 -4.05615,2.9563 -2.26611,0.77121 -4.55127,0.77121 -2.018554,0 -3.770507,-1.31748 -1.751953,-1.31748 -2.4375,-4.98072 0,-1.02828 0.895019,-1.28535 0.89502,-0.25707 1.275879,-0.25707 1.256836,0 1.866211,1.15682 0.457028,0.89974 1.009278,1.83162 0.55225,0.93187 1.16162,0.93187 1.18066,0 2.47559,-1.12468 1.29492,-1.12467 2.38037,-2.95629 1.08545,-1.83162 1.82812,-4.33805 0.74268,-2.50643 0.74268,-5.1414 0,-2.24935 -0.22852,-5.59125 -0.22851,-3.341915 -0.78076,-6.426745 -0.55224,-3.08483 -1.52344,-5.334189 -0.97119,-2.249357 -2.45654,-2.249357 -2.24707,0 -4.05615,3.470437 -1.809084,3.470439 -3.008791,8.354759 -1.199707,4.884325 -1.866211,10.154245 -0.666503,5.26993 -0.666503,8.80463 0,3.5347 0.266601,8.93316 0.266602,5.39846 0.552246,11.21466 0.285645,5.81619 0.552246,11.21465 0.266602,5.39846 0.266602,8.93316 0,0.89975 -0.437988,1.44602 -0.437989,0.54627 -1.047364,0.86761 -0.609375,0.32133 -1.237793,0.3856 -0.628418,0.0643 -0.933105,0.0643 -1.02832,0 -2.151856,-0.3856 -1.123535,-0.38561 -1.54248,-2.37789 -0.533203,-3.1491 -0.990234,-8.96531 -0.457032,-5.81619 -0.818848,-12.85346 -0.361817,-7.03728 -0.628418,-14.7815 -0.266602,-7.74421 -0.457031,-14.94216 -0.19043,-7.197945 -0.285645,-13.174815 -0.09521,-5.97686 -0.09521,-9.511564 z m 36.511849,21.722371 q 0,-5.912605 0.81885,-11.600265 0.81884,-5.687659 1.39013,-11.343187 0.15235,-1.478149 1.19971,-1.831619 1.04736,-0.353471 1.771,-0.353471 1.25683,0 2.01855,0.642674 0.30469,0.257069 0.57129,0.578407 0.2666,0.321336 0.2666,0.835475 0,5.526993 -0.78076,10.796911 -0.78076,5.26993 -0.78076,11.182525 0,1.99229 0.17139,3.75964 0.17138,1.76735 0.32373,3.50258 l 0.22851,1.86375 q 0,0.51414 0.0381,0.89975 0.0381,0.3856 0.11425,0.89974 0,1.15681 -0.97119,1.57455 -0.97119,0.41774 -1.69482,0.41774 -1.10449,0 -2.0376,-0.73908 -0.9331,-0.73907 -1.46631,-2.53856 l -0.5332,-1.86375 q -0.45703,-1.47816 -0.45703,-3.30978 0,-1.83162 -0.19043,-3.37403 z m 2.4375,-38.688955 v -1.221079 q 0,-3.020566 0.89502,-5.398458 0.89502,-2.377892 2.68506,-2.377892 0.22851,0 0.43799,0.06427 0.20947,0.06427 0.43798,0.06427 0.45703,0.128535 1.19971,0.61054 0.74268,0.482006 0.74268,1.510283 v 0.128535 q -0.15235,0.514139 -0.19043,1.060412 -0.0381,0.546272 -0.19043,0.931876 l 0.0762,-0.128535 q -0.45703,1.992288 -0.74268,3.213369 -0.28564,1.221079 -0.62841,1.960154 -0.34278,0.739074 -0.85694,1.060411 -0.51416,0.321336 -1.46631,0.321336 -0.15234,0 -0.5332,-0.06427 -0.38086,-0.06427 -0.81885,-0.257069 -0.43799,-0.192802 -0.74267,-0.514139 -0.30469,-0.321336 -0.30469,-0.964011 z m 14.19349,40.231365 q 0,-4.37017 0.70459,-8.419025 0.70458,-4.04884 2.11376,-7.23008 1.40918,-3.181229 3.52295,-5.077116 2.11377,-1.895887 4.89405,-1.895887 1.71386,0 3.78955,0.867609 2.07568,0.86761 3.90381,2.570695 1.82812,1.703085 3.04687,4.338049 1.21875,2.63496 1.21875,6.04113 0,1.60668 -0.32373,2.442165 -0.32373,0.83547 -1.31396,0.83547 l -0.41895,-0.12853 q 1.10449,5.01285 1.9043,10.28278 0.7998,5.26992 1.56152,10.53984 0.30469,1.02828 0.45703,1.83162 0.15235,0.80334 0.15235,1.57455 0,1.02828 -0.34278,1.70309 -0.34277,0.6748 -0.89502,0.99614 -0.55224,0.32134 -1.14258,0.44987 -0.59033,0.12853 -1.04736,0.12853 -1.63769,0 -2.45654,-0.96401 -0.81885,-0.96401 -1.18067,-2.63496 -0.36181,-1.67095 -0.43798,-3.75963 -0.0762,-2.08869 -0.30469,-4.20951 -0.45703,2.50642 -1.19971,4.88431 -0.74267,2.37789 -1.75195,4.27378 -1.00928,1.89589 -2.38037,3.02056 -1.3711,1.12468 -3.08496,1.12468 -2.51368,0 -4.22754,-2.44216 -1.71387,-2.44215 -2.76123,-6.00899 -1.04737,-3.56684 -1.52344,-7.61568 -0.47607,-4.04885 -0.47607,-7.51929 z m 5.4082,-0.89974 q 0,2.37789 0.19043,5.01285 0.19043,2.63497 0.62842,5.20567 0.43798,2.57069 1.12353,4.85218 0.68555,2.28149 1.71387,4.01671 1.86621,-3.40617 2.76123,-8.29049 0.89502,-4.88431 1.59961,-9.41517 0.70459,-4.53085 1.59961,-7.776355 0.89502,-3.2455 2.76123,-3.2455 1.18066,0 1.98047,0.70694 -0.38086,-1.60668 -1.25684,-3.11697 -0.87598,-1.51028 -1.96142,-2.763493 -1.08545,-1.253212 -2.24708,-2.056555 -1.16162,-0.803342 -2.18994,-0.803342 -0.30468,0 -0.70459,0.160669 -0.3999,0.160668 -0.62841,0.03213 -1.56153,0.771208 -2.57081,2.667095 -1.00927,1.895886 -1.63769,4.466586 -0.62842,2.57069 -0.89502,5.269925 -0.2666,2.69923 -0.2666,5.07712 z m 27.69495,-15.199231 q -0.0952,-2.152957 0.15234,-3.952443 0.24756,-1.799486 0.99024,-2.924164 0.74267,-1.12468 2.38037,-1.12468 0.38086,0 0.9331,0.160669 0.55225,0.160668 1.08545,0.417738 0.53321,0.25707 0.89502,0.771208 0.36182,0.514139 0.36182,1.413882 v 7.262216 q 1.48535,-2.892035 3.2373,-4.145249 1.75196,-1.253213 3.99903,-1.253213 1.71386,0 3.38965,1.31748 1.67578,1.317481 3.16113,3.502572 1.48535,2.18509 2.5708,4.82005 1.08545,2.63496 1.58057,5.269925 0.30468,-2.377895 0.68554,-5.816195 0.38086,-3.43831 1.12354,-6.587405 0.74267,-3.149101 1.96142,-5.398459 1.21875,-2.249357 3.23731,-2.249357 2.1709,0 3.65625,2.634961 1.48535,2.634963 2.41846,6.84447 0.9331,4.20952 1.40918,9.415175 0.47607,5.20565 0.70459,10.28278 0.22851,5.07712 0.22851,9.47943 v 6.90874 q 0,0.77121 -0.34277,1.25321 -0.34278,0.48201 -0.85694,0.73908 -0.51416,0.25707 -1.0664,0.32134 -0.55225,0.0643 -0.85694,0.0643 -1.18066,0 -2.15185,-0.61054 -0.97119,-0.61054 -0.97119,-3.11697 v -5.78406 q 0,0 -0.0762,-7.48714 -0.0762,-7.48716 -0.26661,-8.03343 -0.19043,-0.54627 -0.49511,-7.294345 -0.30469,-6.748074 -0.78077,-5.26992 -0.47607,1.47815 -1.16162,-2.05656 -0.95214,0 -1.37109,1.79949 -0.41895,1.79948 -0.70459,4.56298 -0.28564,2.7635 -0.43799,5.848335 -0.15234,3.08483 -0.41894,5.84832 -0.26661,2.76351 -0.85694,4.53086 -0.59033,1.76735 -1.61865,1.76735 -1.10449,0 -1.94238,-1.76735 -0.83789,-1.76735 -1.65674,-4.40232 -0.81885,-2.63496 -1.6377,-5.65553 -0.81884,-3.02056 -1.80908,-5.655525 -0.99023,-2.69923 -2.13281,-4.37018 -1.02832,-1.60669 -2.32324,-1.54242 h -0.19043 q -1.71387,0.12854 -2.68506,2.08869 -0.97119,1.96015 -1.48535,4.78792 -0.51416,2.827765 -0.62842,6.073265 -0.11426,3.2455 -0.11426,5.68766 0,2.31363 0.22852,5.39847 0.15234,2.05655 0.15234,3.9203 0,0.96401 -0.0381,1.86375 -0.11426,2.69923 -0.85694,4.53085 -0.74267,1.83162 -2.76123,1.83162 -0.76172,0 -1.9043,-0.25707 -1.14257,-0.25707 -1.52343,-1.73522 -0.87598,-2.63496 -1.33301,-6.65167 -0.45703,-4.0167 -0.68555,-8.29049 -0.22851,-4.27378 -0.2666,-8.48329 -0.0381,-4.209515 -0.0381,-7.230085 0,-2.12082 -0.0952,-4.273774 z m 48.03284,18.733931 q 0,-4.49871 0.59033,-10.604105 0.59034,-6.1054 1.99952,-11.568129 1.40917,-5.462726 3.71337,-9.286634 2.3042,-3.823908 5.80811,-3.823908 3.27539,0 4.91309,3.181235 1.63769,3.181233 1.63769,8.579692 0,3.534705 -0.78076,7.744214 -0.78076,4.20952 -2.22803,7.969155 -1.44726,3.75964 -3.42773,6.26607 -1.98047,2.50642 -4.41797,2.50642 l -0.99024,-0.12853 q 0,1.73523 0.30469,4.65939 0.30469,2.92416 0.89502,5.81619 0.59033,2.89203 1.52344,5.07712 0.9331,2.18509 2.26611,2.18509 1.94238,0 3.73242,-2.63496 1.79004,-2.63496 3.38965,-5.84833 1.59961,-3.21336 2.97071,-5.84832 1.37109,-2.63496 2.51367,-2.63496 0.60937,0 1.25683,0.32133 0.64746,0.32134 0.72364,1.79949 0,0.89974 -0.28565,1.47815 -0.28564,0.5784 -0.51416,1.28534 -1.18066,3.40617 -2.5708,6.491 -1.39014,3.08484 -3.14209,5.59126 -1.75195,2.50643 -3.82764,3.95245 -2.07568,1.44602 -4.58935,1.44602 -3.27539,0 -5.44629,-1.96017 -2.1709,-1.96015 -3.50391,-5.26992 -1.333,-3.30976 -1.92334,-7.64781 -0.59033,-4.33804 -0.59033,-9.09384 z m 6.81738,-4.88431 1.06641,1.60668 q 0.76172,1.15681 1.52344,0.51414 0.76172,-0.64267 1.37109,-2.34576 0.60938,-1.70308 1.12354,-4.20951 0.51416,-2.506425 0.91406,-5.141395 0.3999,-2.63496 0.59033,-5.141385 0.19043,-2.506427 0.19043,-4.177379 v -2.18509 q 0,0 -0.11426,-2.313624 -0.11425,-2.313626 -0.3999,-1.83162 -0.28564,0.482005 -0.89502,-0.931878 -0.19043,-0.06427 -0.34277,-0.06427 -1.29492,0 -2.20899,2.763497 -0.99023,3.084833 -1.59961,7.487147 -0.60937,4.402312 -0.87597,9.029572 -0.2666,4.627245 -0.34278,6.940875 z m 25.04798,2.57069 v -1.86375 q 0,-2.31363 0.0762,-4.37018 0.0762,-2.892035 0.0762,-4.755785 0,-1.02828 0.0762,-2.34576 0.0762,-1.31748 0.38086,-2.08869 0.38086,-0.642676 0.89502,-1.317483 0.51416,-0.674807 1.12353,-0.674807 1.94239,0 3.04688,0.739074 1.10449,0.739076 1.18066,3.052696 l 0.15235,1.99229 q 0.68554,-2.76349 1.82812,-6.844472 1.14258,-4.080977 2.64697,-7.776351 1.5044,-3.695372 3.38965,-6.298201 1.88526,-2.602827 3.97998,-2.602827 1.94238,0 3.19922,3.084834 1.25684,3.084832 1.99951,7.87275 0.74268,4.787919 1.04737,10.668387 0.30468,5.88046 0.41894,11.535985 0.11426,5.65553 0.15234,10.31492 0.0381,4.65938 0.26661,7.03727 0.15234,1.99229 0.51416,4.20951 0.36181,2.21722 0.36181,4.08098 0,0.51413 -0.43799,0.99615 -0.43798,0.48201 -0.9331,0.80334 -0.49512,0.32134 -1.00928,0.51414 -0.51416,0.1928 -0.74267,0.1928 -1.48536,0 -2.11377,-3.75965 -0.62842,-3.75963 -0.78077,-9.41516 -0.15234,-5.65552 -0.15234,-12.24294 0,-6.5874 -0.2666,-12.242925 -0.2666,-5.655531 -1.08545,-9.415171 -0.81885,-3.759641 -2.60889,-3.888176 -1.63769,0 -3.38965,3.566839 -1.75195,3.566839 -3.00878,9.479438 -1.21875,5.912595 -1.67579,13.431875 -0.15234,2.3779 -0.15234,4.75579 0,5.20566 0.64746,10.41131 0.0762,0.89974 -0.43799,1.34961 -0.51416,0.44988 -1.27588,0.70694 -0.76171,0.25707 -1.54248,0.32134 -0.78076,0.0643 -1.1997,0.0643 -1.48535,0 -2.38037,-1.76735 -0.89502,-1.76735 -1.39014,-4.53085 -0.49512,-2.76349 -0.6665,-6.20179 -0.17139,-3.43832 -0.20948,-6.78022 z m 33.04603,-41.131111 q 0,-0.899742 1.14258,-1.542417 1.14257,-0.642673 2.58984,-1.06041 1.44727,-0.417738 2.79932,-0.61054 1.35205,-0.192802 1.84716,-0.321338 0,-1.735217 0.0762,-3.50257 0.0762,-1.767352 0.41894,-3.149101 0.34277,-1.381747 1.08545,-2.217224 0.74268,-0.835475 2.07568,-0.835475 1.1045,0 1.67579,0.449871 0.57128,0.449872 1.21875,1.863754 0.15234,0.771208 0.15234,1.478149 v 2.152957 q 0,0 -0.0762,2.217224 1.40918,-0.25707 2.79931,-0.610541 1.39014,-0.35347 2.79932,-0.35347 1.02832,0 1.40918,0.06427 0.38086,0.06427 0.76172,1.542417 0.30469,1.478149 -0.74268,2.249357 -1.04736,0.771208 -2.51367,1.156813 -1.46631,0.385604 -2.91357,0.578406 -1.44727,0.192802 -1.75196,0.192802 -0.45703,11.053985 -0.9331,21.91517 -0.47608,10.861182 -0.47608,22.043697 0,5.01287 0.19043,10.34705 0.19043,5.33419 1.06641,10.08997 0.22852,1.47816 0.76172,2.76351 0.5332,1.28535 0.5332,2.76349 0,0.89975 -0.41894,1.41389 -0.41895,0.51413 -1.00928,0.8676 -0.59033,0.35347 -1.18066,0.41774 -0.59034,0.0643 -0.9712,0.0643 -2.39941,0 -3.65625,-3.02056 -1.25683,-3.02057 -1.80908,-7.23009 -0.55224,-4.20951 -0.59033,-8.64395 -0.0381,-4.43445 -0.0381,-7.19794 0,-5.65554 0.1333,-11.56813 0.13331,-5.912605 0.32373,-11.696664 0.19043,-5.784061 0.53321,-11.311055 0.34277,-5.526993 0.7998,-10.282777 -1.33301,0.257069 -2.60888,0.578406 -1.27588,0.321337 -2.60889,0.321337 -0.30469,0 -0.81885,-0.06427 -0.51416,-0.06427 -0.97119,-0.321336 -0.45703,-0.25707 -0.78076,-0.706941 -0.32373,-0.449871 -0.32373,-1.285347 z m 27.56165,35.154251 q 0,-1.285355 0.17139,-3.406175 0.17138,-2.12082 0.3999,-4.20951 0.22851,-2.08869 0.5332,-3.888177 0.30469,-1.799486 0.72363,-2.313625 0.30469,-0.51414 1.04737,-1.028278 0.74267,-0.514139 1.56152,-0.739075 0.81885,-0.224935 1.52344,0.192802 0.70459,0.417738 0.85693,1.703086 -0.5332,1.156811 -0.97119,3.952447 -0.43799,2.79562 -0.6665,6.2018 -0.19043,2.892035 -0.19043,5.976865 v 1.09254 q 0.0381,3.59897 0.38086,6.61955 0.34277,3.02056 1.04736,4.98071 0.70459,1.96016 1.96142,1.96016 2.66602,0 4.875,-4.14524 2.20899,-4.14526 3.92286,-10.12212 1.71386,-5.976865 3.00879,-12.692805 1.29492,-6.715939 2.20898,-11.728793 0.22852,-1.478149 1.08545,-1.992288 0.85693,-0.514138 1.84717,-0.35347 0.99023,0.160668 1.77099,0.803342 0.78076,0.642673 0.93311,1.542416 -0.76172,10.796916 -1.19971,21.593838 -0.43799,10.79692 -0.43799,21.72237 0,2.12082 0.11426,3.88817 0.11426,1.76735 -0.11426,3.02056 -0.22851,1.25322 -1.00927,1.9923 -0.78077,0.73908 -2.49463,0.73908 -0.38086,0 -0.97119,-0.12854 -0.59034,-0.12853 -1.21875,-0.41774 -0.62842,-0.2892 -1.06641,-0.86762 -0.43799,-0.5784 -0.43799,-1.34961 0,-4.75578 0.20947,-9.76863 0.20948,-5.01286 0.59034,-9.70438 -1.02832,2.50644 -2.26612,4.98073 -1.23779,2.47429 -2.72314,4.46658 -1.48535,1.99228 -3.19922,3.18123 -1.71387,1.18894 -3.69434,1.18894 -2.81836,0 -4.43701,-2.24935 -1.61865,-2.24936 -2.4375,-5.62339 -0.81885,-3.37404 -1.02832,-7.35862 -0.20947,-3.98458 -0.20947,-7.71208 z"
     id="path2"
     style="stroke-width:1.29901;fill:#ffffff;fill-opacity:1;stroke:#885381;stroke-opacity:1" />
  <path
     fill="#f9e814"
     d="m 347.75548,109.52528 q 0,-0.51811 0.0452,-1.04658 0.0452,-0.52846 0.0452,-1.04657 v -0.33159 q 0,-0.64245 0.38453,-0.80824 0.38452,-0.16579 0.79167,-0.16579 0.46746,0 0.89723,0.26941 0.42976,0.26941 0.42976,1.03621 0.0905,0.37304 0.0905,0.89114 v 0.97404 q 0,0.72535 -0.36945,1.00512 -0.36944,0.27978 -0.9877,0.27978 -0.43731,0 -0.88215,-0.2176 -0.44485,-0.21761 -0.44485,-0.83933 z m 6.1173,-7.04624 q 0,-1.90662 0.32421,-3.740718 0.3242,-1.834093 0.5504,-3.657824 0.0603,-0.476657 0.475,-0.59064 0.41469,-0.113983 0.7012,-0.113983 0.49762,0 0.79921,0.207242 0.12063,0.0829 0.22619,0.186518 0.10556,0.103621 0.10556,0.269415 0,1.782282 -0.30913,3.481668 -0.30913,1.699382 -0.30913,3.606012 0,0.64245 0.0679,1.21237 0.0679,0.56991 0.12817,1.12947 l 0.0905,0.601 q 0,0.16579 0.0151,0.29014 0.0151,0.12434 0.0452,0.29014 0,0.37303 -0.38453,0.50774 -0.38453,0.13471 -0.67104,0.13471 -0.4373,0 -0.80675,-0.23833 -0.36945,-0.23833 -0.58056,-0.81861 l -0.21111,-0.601 q -0.18096,-0.47666 -0.18096,-1.0673 0,-0.59064 -0.0754,-1.08802 z m 0.96508,-12.475975 v -0.39376 q 0,-0.974038 0.35437,-1.740834 0.35437,-0.766796 1.0631,-0.766796 0.0905,0 0.17342,0.02072 0.0829,0.02072 0.17341,0.02072 0.18096,0.04145 0.47501,0.196881 0.29405,0.155431 0.29405,0.487019 v 0.04145 q -0.0603,0.165794 -0.0754,0.34195 -0.0151,0.176155 -0.0754,0.300501 l 0.0302,-0.04145 q -0.18095,0.642451 -0.29405,1.036211 -0.1131,0.39376 -0.24881,0.632089 -0.13572,0.238328 -0.33929,0.341949 -0.20357,0.103621 -0.58056,0.103621 -0.0603,0 -0.21111,-0.02072 -0.1508,-0.02072 -0.32421,-0.0829 -0.17342,-0.06217 -0.29405,-0.165794 -0.12064,-0.103621 -0.12064,-0.310863 z m 5.63475,13.076985 v -0.60101 q 0,-0.74607 0.0302,-1.40924 0.0302,-0.93259 0.0302,-1.533595 0,-0.331588 0.0302,-0.756434 0.0302,-0.424847 0.15079,-0.673537 0.1508,-0.207243 0.35437,-0.424847 0.20358,-0.217604 0.44485,-0.217604 0.76905,0 1.20636,0.238328 0.4373,0.238329 0.46746,0.984401 l 0.0603,0.64245 q 0.27143,-0.891141 0.72381,-2.207129 0.45239,-1.315987 1.04803,-2.50763 0.59564,-1.191642 1.34207,-2.030973 0.74643,-0.839331 1.57581,-0.839331 0.76905,0 1.26667,0.994763 0.49763,0.994762 0.79168,2.538716 0.29405,1.543954 0.41468,3.44022 0.12064,1.896262 0.16588,3.719992 0.0452,1.82374 0.0603,3.32624 0.0151,1.50251 0.10556,2.2693 0.0603,0.64245 0.20357,1.35744 0.14326,0.71498 0.14326,1.31599 0,0.16579 -0.17342,0.32122 -0.17341,0.15543 -0.36944,0.25905 -0.19604,0.10363 -0.39961,0.1658 -0.20357,0.0622 -0.29405,0.0622 -0.5881,0 -0.83691,-1.21237 -0.24881,-1.21236 -0.30913,-3.03609 -0.0603,-1.82373 -0.0603,-3.94797 0,-2.12423 -0.10555,-3.947959 -0.10556,-1.823731 -0.42977,-3.036098 -0.32421,-1.212366 -1.03294,-1.253815 -0.64842,0 -1.34208,1.150194 -0.69365,1.150194 -1.19128,3.056822 -0.48254,1.906626 -0.66349,4.331366 -0.0603,0.76679 -0.0603,1.53359 0,1.67866 0.25635,3.35732 0.0302,0.29014 -0.17342,0.43521 -0.20357,0.14507 -0.50516,0.22796 -0.30159,0.0829 -0.61072,0.10363 -0.30913,0.0207 -0.475,0.0207 -0.5881,0 -0.94247,-0.56992 -0.35437,-0.56991 -0.5504,-1.46105 -0.19603,-0.89114 -0.26389,-1.99989 -0.0679,-1.10875 -0.0829,-2.1864 z m 13.70228,-8.766348 q 0,-0.207242 0.23373,-0.352312 0.23373,-0.145069 0.55794,-0.207242 0.32421,-0.06217 0.61826,-0.103621 0.29405,-0.04145 0.44484,-0.04145 0.0603,-0.559554 0.17342,-1.512868 0.11309,-0.953314 0.27897,-2.041335 0.16587,-1.088022 0.41468,-2.186405 0.24881,-1.098383 0.60318,-1.989525 0.35437,-0.891141 0.83691,-1.461057 0.48255,-0.569916 1.13096,-0.569916 h -0.0302 q 0.21112,-0.04145 0.41469,-0.06217 0.20357,-0.02073 0.41469,-0.02073 0.49762,0 1.07818,0.269415 0.58056,0.269415 1.07818,0.756434 0.49762,0.487019 0.83691,1.170918 0.33929,0.683899 0.33929,1.450695 0,0.601003 -0.21865,1.295264 -0.21865,0.694261 -0.76152,0.694261 -0.18095,0 -0.36944,-0.124345 -0.1885,-0.124346 -0.35437,-0.269415 0.0603,-0.476657 0.0603,-0.953314 0,-0.248691 -0.0151,-0.476657 -0.0452,-0.725348 -0.22619,-1.274539 -0.18096,-0.549192 -0.52025,-0.870417 -0.33928,-0.321226 -0.80675,-0.238329 -0.61826,0.124345 -0.92739,1.036211 -0.30913,0.911865 -0.42976,2.165681 -0.12064,1.253815 -0.1508,2.549078 -0.0302,1.295264 -0.12063,2.103508 0.70873,0.0829 1.19882,0.0829 h 1.22897 q 0.12064,0 0.41469,0.02072 0.29405,0.02072 0.57302,0.0829 0.27897,0.06217 0.49762,0.217604 0.21866,0.155432 0.21866,0.404122 0,0.207243 -0.12064,0.362674 -0.12064,0.155432 -0.29405,0.217604 -0.17341,0.06217 -0.36191,0.0829 -0.18849,0.02072 -0.30913,0.02072 -0.52778,0 -0.89723,-0.06217 -0.36944,-0.06217 -0.70873,-0.113983 -0.33929,-0.05181 -0.70874,-0.05181 -0.36944,0 -0.86707,0.14507 -0.15079,2.300388 -0.24127,4.559327 -0.0905,2.258942 -0.0905,4.559332 0,3.60601 0.16588,7.06695 0.16587,3.46095 0.60318,7.02551 0.0603,0.33159 0.10555,0.75644 0.0452,0.42484 0.0452,0.8186 0,0.37304 -0.16587,0.61137 -0.16588,0.23833 -0.41469,0.34195 -0.24881,0.10362 -0.5127,0.14507 -0.26389,0.0414 -0.475,0.0414 -0.85953,0 -1.20636,-0.36268 -0.34683,-0.36267 -0.49763,-1.46106 -0.37698,-2.92211 -0.48254,-5.89603 -0.10556,-2.97393 -0.10556,-5.99967 0,-2.96356 0.15834,-5.91676 0.15833,-2.953201 0.39961,-5.875315 -0.12064,0 -0.41469,0.02072 -0.29405,0.02072 -0.5881,0 -0.29405,-0.02072 -0.5127,-0.145069 -0.21865,-0.124346 -0.21865,-0.435209 z m 10.82209,9.056478 q 0,-1.18128 0.21865,-2.43509 0.21865,-1.253816 0.69366,-2.25894 0.475,-1.005125 1.19881,-1.637213 0.72382,-0.632089 1.74922,-0.632089 0.76906,0 1.62105,0.362674 0.85199,0.362673 1.56072,1.036211 0.70874,0.673537 1.15358,1.647575 0.44485,0.974042 0.44485,2.176042 0,1.4507 -0.38453,2.75632 -0.38452,1.30563 -1.07818,2.33148 -0.69366,1.02584 -1.62104,1.61648 -0.92739,0.59064 -2.01312,0.59064 -0.88968,0 -1.55318,-0.44557 -0.6635,-0.44557 -1.10834,-1.19164 -0.44485,-0.74607 -0.6635,-1.76156 -0.21865,-1.01548 -0.21865,-2.15532 z m 2.21668,-0.0414 q 0,0.37303 0.0829,1.09838 0.0829,0.72535 0.24881,1.41961 0.16587,0.69426 0.42976,1.202 0.2639,0.50775 0.64088,0.4663 0.79921,-0.12435 1.31946,-0.71499 0.52024,-0.59064 0.84445,-1.44033 0.32421,-0.84969 0.45238,-1.84446 0.12818,-0.99476 0.12818,-1.8859 0,-1.13983 -0.32421,-1.906628 -0.32421,-0.766796 -1.0631,-1.243452 0,0.04145 0.0301,0.04145 0.0302,0 0.0302,-0.04145 l -0.37698,-0.124346 q -0.1508,-0.0829 -0.36945,-0.186518 -0.21865,-0.103621 -0.42977,-0.455932 -0.5881,0.290139 -0.9123,0.746071 -0.32421,0.455933 -0.49009,1.108746 -0.16587,0.652809 -0.20357,1.564679 -0.0377,0.91186 -0.0377,2.19677 z"
     id="path4"
     style="stroke-width:1.29302;fill:#885381;fill-opacity:1;stroke:#885381;stroke-opacity:1" />
</svg>
