<?xml version="1.0"?>
<svg version="1.1" xmlns="http://www.w3.org/2000/svg" width="400" height="200" style=""><path fill="#f9e814" d="M17.3828125,90.46875q0-1.8359375,0.09765625-3.6328125t0.33203125-3.5546875q0.15625-0.8984375,1.38671875-1.2890625t2.05078125-0.390625l0.9375,0.078125q1.1328125,0.15625,2.28515625-0.15625t2.28515625-0.3125q2.65625,0,5.9375,0.5859375t6.15234375,1.9921875t4.82421875,3.69140625t1.953125,5.64453125t-2.03125,6.26953125t-5.1171875,5.1171875t-6.640625,3.45703125t-6.5234375,1.25q0.3125,7.5390625,0.87890625,14.9609375t1.93359375,14.84375l0.078125,0.5078125q0,0.546875-0.48828125,0.8984375t-1.15234375,0.56640625t-1.34765625,0.29296875t-1.11328125,0.078125q-0.9765625,0-2.36328125-0.37109375t-1.69921875-1.46484375q-0.8984375-3.4375-1.40625-7.55859375t-0.7421875-8.61328125t-0.33203125-9.04296875t-0.09765625-8.88671875l0-8.7890625q0-1.4453125-0.0390625-3.0078125t-0.0390625-3.1640625z M24.765625,84.140625q0,5.3515625,0.1171875,10.68359375t0.2734375,10.68359375q2.3046875-0.46875,4.70703125-1.66015625t4.3359375-2.83203125t3.125-3.73046875t1.19140625-4.39453125q0-2.0703125-1.03515625-3.7109375t-2.67578125-2.8125q-1.6015625-1.1328125-3.6328125-1.7578125q-1.796875-0.546875-3.515625-0.546875l-0.4296875,0z M53.619921875,125.4296875q0-2.65625,0.72265625-5.1171875t2.16796875-4.39453125t3.61328125-3.0859375t5.01953125-1.15234375q1.7578125,0,3.88671875,0.52734375t4.00390625,1.5625t3.125,2.63671875t1.25,3.671875q0,0.9765625-0.33203125,1.484375t-1.34765625,0.5078125l-0.4296875-0.078125q1.1328125,3.046875,1.953125,6.25t1.6015625,6.40625q0.3125,0.625,0.46875,1.11328125t0.15625,0.95703125q0,0.625-0.3515625,1.03515625t-0.91796875,0.60546875t-1.171875,0.2734375t-1.07421875,0.078125q-1.6796875,0-2.51953125-0.5859375t-1.2109375-1.6015625t-0.44921875-2.28515625t-0.3125-2.55859375q-0.46875,1.5234375-1.23046875,2.96875t-1.796875,2.59765625t-2.44140625,1.8359375t-3.1640625,0.68359375q-2.578125,0-4.3359375-1.484375t-2.83203125-3.65234375t-1.5625-4.62890625t-0.48828125-4.5703125z M59.166796875,124.8828125q0,1.4453125,0.1953125,3.046875t0.64453125,3.1640625t1.15234375,2.94921875t1.7578125,2.44140625q1.9140625-2.0703125,2.83203125-5.0390625t1.640625-5.72265625t1.640625-4.7265625t2.83203125-1.97265625q1.2109375,0,2.03125,0.4296875q-0.390625-0.9765625-1.2890625-1.89453125t-2.01171875-1.6796875t-2.3046875-1.25t-2.24609375-0.48828125q-0.3125,0-0.72265625,0.09765625t-0.64453125,0.01953125q-1.6015625,0.46875-2.63671875,1.62109375t-1.6796875,2.71484375t-0.91796875,3.203125t-0.2734375,3.0859375z M87.47421875,111.2890625q0-1.8359375,0.72265625-2.71484375t2.63671875-0.87890625q1.1328125,0,2.12890625,0.46875t0.99609375,1.9921875q0.15625,2.2265625,0.15625,4.66796875t0.4296875,4.62890625q0.9765625-1.6015625,2.20703125-3.203125t2.71484375-2.8515625t3.2421875-2.01171875t3.828125-0.76171875q2.8125,0,4.765625,1.171875t3.22265625,3.046875t1.8359375,4.23828125t0.56640625,4.74609375q0,3.671875-1.11328125,5.99609375t-2.94921875,3.65234375t-4.16015625,1.796875t-4.66796875,0.46875q-2.0703125,0-3.8671875-0.80078125t-2.5-3.02734375q0-0.625,0.91796875-0.78125t1.30859375-0.15625q1.2890625,0,1.9140625,0.703125q0.46875,0.546875,1.03515625,1.11328125t1.19140625,0.56640625q1.2109375,0,2.5390625-0.68359375t2.44140625-1.796875t1.875-2.63671875t0.76171875-3.125q0-1.3671875-0.234375-3.3984375t-0.80078125-3.90625t-1.5625-3.2421875t-2.51953125-1.3671875q-2.3046875,0-4.16015625,2.109375t-3.0859375,5.078125t-1.9140625,6.171875t-0.68359375,5.3515625t0.2734375,5.4296875t0.56640625,6.81640625t0.56640625,6.81640625t0.2734375,5.4296875q0,0.546875-0.44921875,0.87890625t-1.07421875,0.52734375t-1.26953125,0.234375t-0.95703125,0.0390625q-1.0546875,0-2.20703125-0.234375t-1.58203125-1.4453125q-0.546875-1.9140625-1.015625-5.44921875t-0.83984375-7.8125t-0.64453125-8.984375t-0.46875-9.08203125t-0.29296875-8.0078125t-0.09765625-5.78125z M124.922265625,124.4921875q0-3.59375,0.83984375-7.05078125t1.42578125-6.89453125q0.15625-0.8984375,1.23046875-1.11328125t1.81640625-0.21484375q1.2890625,0,2.0703125,0.390625q0.3125,0.15625,0.5859375,0.3515625t0.2734375,0.5078125q0,3.359375-0.80078125,6.5625t-0.80078125,6.796875q0,1.2109375,0.17578125,2.28515625t0.33203125,2.12890625l0.234375,1.1328125q0,0.3125,0.0390625,0.546875t0.1171875,0.546875q0,0.703125-0.99609375,0.95703125t-1.73828125,0.25390625q-1.1328125,0-2.08984375-0.44921875t-1.50390625-1.54296875l-0.546875-1.1328125q-0.46875-0.8984375-0.46875-2.01171875t-0.1953125-2.05078125z M127.422265625,100.9765625l0-0.7421875q0-1.8359375,0.91796875-3.28125t2.75390625-1.4453125q0.234375,0,0.44921875,0.0390625t0.44921875,0.0390625q0.46875,0.078125,1.23046875,0.37109375t0.76171875,0.91796875l0,0.078125q-0.15625,0.3125-0.1953125,0.64453125t-0.1953125,0.56640625l0.078125-0.078125q-0.46875,1.2109375-0.76171875,1.953125t-0.64453125,1.19140625t-0.87890625,0.64453125t-1.50390625,0.1953125q-0.15625,0-0.546875-0.0390625t-0.83984375-0.15625t-0.76171875-0.3125t-0.3125-0.5859375z M141.9796875,125.4296875q0-2.65625,0.72265625-5.1171875t2.16796875-4.39453125t3.61328125-3.0859375t5.01953125-1.15234375q1.7578125,0,3.88671875,0.52734375t4.00390625,1.5625t3.125,2.63671875t1.25,3.671875q0,0.9765625-0.33203125,1.484375t-1.34765625,0.5078125l-0.4296875-0.078125q1.1328125,3.046875,1.953125,6.25t1.6015625,6.40625q0.3125,0.625,0.46875,1.11328125t0.15625,0.95703125q0,0.625-0.3515625,1.03515625t-0.91796875,0.60546875t-1.171875,0.2734375t-1.07421875,0.078125q-1.6796875,0-2.51953125-0.5859375t-1.2109375-1.6015625t-0.44921875-2.28515625t-0.3125-2.55859375q-0.46875,1.5234375-1.23046875,2.96875t-1.796875,2.59765625t-2.44140625,1.8359375t-3.1640625,0.68359375q-2.578125,0-4.3359375-1.484375t-2.83203125-3.65234375t-1.5625-4.62890625t-0.48828125-4.5703125z M147.5265625,124.8828125q0,1.4453125,0.1953125,3.046875t0.64453125,3.1640625t1.15234375,2.94921875t1.7578125,2.44140625q1.9140625-2.0703125,2.83203125-5.0390625t1.640625-5.72265625t1.640625-4.7265625t2.83203125-1.97265625q1.2109375,0,2.03125,0.4296875q-0.390625-0.9765625-1.2890625-1.89453125t-2.01171875-1.6796875t-2.3046875-1.25t-2.24609375-0.48828125q-0.3125,0-0.72265625,0.09765625t-0.64453125,0.01953125q-1.6015625,0.46875-2.63671875,1.62109375t-1.6796875,2.71484375t-0.91796875,3.203125t-0.2734375,3.0859375z M175.931640625,115.64453125q-0.09765625-1.30859375,0.15625-2.40234375t1.015625-1.77734375t2.44140625-0.68359375q0.390625,0,0.95703125,0.09765625t1.11328125,0.25390625t0.91796875,0.46875t0.37109375,0.859375l0,4.4140625q1.5234375-1.7578125,3.3203125-2.51953125t4.1015625-0.76171875q1.7578125,0,3.4765625,0.80078125t3.2421875,2.12890625t2.63671875,2.9296875t1.62109375,3.203125q0.3125-1.4453125,0.703125-3.53515625t1.15234375-4.00390625t2.01171875-3.28125t3.3203125-1.3671875q2.2265625,0,3.75,1.6015625t2.48046875,4.16015625t1.4453125,5.72265625t0.72265625,6.25t0.234375,5.76171875l0,4.19921875q0,0.46875-0.3515625,0.76171875t-0.87890625,0.44921875t-1.09375,0.1953125t-0.87890625,0.0390625q-1.2109375,0-2.20703125-0.37109375t-0.99609375-1.89453125l0-3.515625t-0.078125-4.55078125t-0.2734375-4.8828125t-0.5078125-4.43359375t-0.80078125-3.203125t-1.19140625-1.25q-0.9765625,0-1.40625,1.09375t-0.72265625,2.7734375t-0.44921875,3.5546875t-0.4296875,3.5546875t-0.87890625,2.75390625t-1.66015625,1.07421875q-1.1328125,0-1.9921875-1.07421875t-1.69921875-2.67578125t-1.6796875-3.4375t-1.85546875-3.4375q-1.015625-1.640625-2.1875-2.65625q-1.0546875-0.9765625-2.3828125-0.9375l-0.1953125,0q-1.7578125,0.078125-2.75390625,1.26953125t-1.5234375,2.91015625t-0.64453125,3.69140625t-0.1171875,3.45703125q0,1.40625,0.234375,3.28125q0.15625,1.25,0.15625,2.3828125q0,0.5859375-0.0390625,1.1328125q-0.1171875,1.640625-0.87890625,2.75390625t-2.83203125,1.11328125q-0.78125,0-1.953125-0.15625t-1.5625-1.0546875q-0.8984375-1.6015625-1.3671875-4.04296875t-0.703125-5.0390625t-0.2734375-5.15625t-0.0390625-4.39453125q0-1.2890625-0.09765625-2.59765625z M225.19609375,127.03125q0-2.734375,0.60546875-6.4453125t2.05078125-7.03125t3.80859375-5.64453125t5.95703125-2.32421875q3.359375,0,5.0390625,1.93359375t1.6796875,5.21484375q0,2.1484375-0.80078125,4.70703125t-2.28515625,4.84375t-3.515625,3.80859375t-4.53125,1.5234375l-1.015625-0.078125q0,1.0546875,0.3125,2.83203125t0.91796875,3.53515625t1.5625,3.0859375t2.32421875,1.328125q1.9921875,0,3.828125-1.6015625t3.4765625-3.5546875t3.046875-3.5546875t2.578125-1.6015625q0.625,0,1.2890625,0.1953125t0.7421875,1.09375q0,0.546875-0.29296875,0.8984375t-0.52734375,0.78125q-1.2109375,2.0703125-2.63671875,3.9453125t-3.22265625,3.3984375t-3.92578125,2.40234375t-4.70703125,0.87890625q-3.359375,0-5.5859375-1.19140625t-3.59375-3.203125t-1.97265625-4.6484375t-0.60546875-5.52734375z M232.18828125,124.0625l1.09375,0.9765625q0.78125,0.703125,1.5625,0.3125t1.40625-1.42578125t1.15234375-2.55859375t0.9375-3.125t0.60546875-3.125t0.1953125-2.5390625l0-1.328125t-0.1171875-1.40625t-0.41015625-1.11328125t-0.91796875-0.56640625q-0.1953125-0.0390625-0.3515625-0.0390625q-1.328125,0-2.265625,1.6796875q-1.015625,1.875-1.640625,4.55078125t-0.8984375,5.48828125t-0.3515625,4.21875z M257.878515625,125.625l0-1.1328125q0-1.40625,0.078125-2.65625q0.078125-1.7578125,0.078125-2.890625q0-0.625,0.078125-1.42578125t0.390625-1.26953125q0.390625-0.390625,0.91796875-0.80078125t1.15234375-0.41015625q1.9921875,0,3.125,0.44921875t1.2109375,1.85546875l0.15625,1.2109375q0.703125-1.6796875,1.875-4.16015625t2.71484375-4.7265625t3.4765625-3.828125t4.08203125-1.58203125q1.9921875,0,3.28125,1.875t2.05078125,4.78515625t1.07421875,6.484375t0.4296875,7.01171875t0.15625,6.26953125t0.2734375,4.27734375q0.15625,1.2109375,0.52734375,2.55859375t0.37109375,2.48046875q0,0.3125-0.44921875,0.60546875t-0.95703125,0.48828125t-1.03515625,0.3125t-0.76171875,0.1171875q-1.5234375,0-2.16796875-2.28515625t-0.80078125-5.72265625t-0.15625-7.44140625t-0.2734375-7.44140625t-1.11328125-5.72265625t-2.67578125-2.36328125q-1.6796875,0-3.4765625,2.16796875t-3.0859375,5.76171875q-1.25,3.59375-1.71875,8.1640625q-0.15625,1.4453125-0.15625,2.890625q0,3.1640625,0.6640625,6.328125q0.078125,0.546875-0.44921875,0.8203125t-1.30859375,0.4296875t-1.58203125,0.1953125t-1.23046875,0.0390625q-1.5234375,0-2.44140625-1.07421875t-1.42578125-2.75390625t-0.68359375-3.76953125t-0.21484375-4.12109375z M291.771875,100.625q0-0.546875,1.171875-0.9375t2.65625-0.64453125t2.87109375-0.37109375t1.89453125-0.1953125q0-1.0546875,0.078125-2.12890625t0.4296875-1.9140625t1.11328125-1.34765625t2.12890625-0.5078125q1.1328125,0,1.71875,0.2734375t1.25,1.1328125q0.15625,0.46875,0.15625,0.8984375l0,1.30859375t-0.078125,1.34765625q1.4453125-0.15625,2.87109375-0.37109375t2.87109375-0.21484375q1.0546875,0,1.4453125,0.0390625t0.78125,0.9375q0.3125,0.8984375-0.76171875,1.3671875t-2.578125,0.703125t-2.98828125,0.3515625t-1.796875,0.1171875q-0.46875,6.71875-0.95703125,13.3203125t-0.48828125,13.3984375q0,3.046875,0.1953125,6.2890625t1.09375,6.1328125q0.234375,0.8984375,0.78125,1.6796875t0.546875,1.6796875q0,0.546875-0.4296875,0.859375t-1.03515625,0.52734375t-1.2109375,0.25390625t-0.99609375,0.0390625q-2.4609375,0-3.75-1.8359375t-1.85546875-4.39453125t-0.60546875-5.25390625t-0.0390625-4.375q0-3.4375,0.13671875-7.03125t0.33203125-7.109375t0.546875-6.875t0.8203125-6.25q-1.3671875,0.15625-2.67578125,0.3515625t-2.67578125,0.1953125q-0.3125,0-0.83984375-0.0390625t-0.99609375-0.1953125t-0.80078125-0.4296875t-0.33203125-0.78125z M320.040234375,121.9921875q0-0.78125,0.17578125-2.0703125t0.41015625-2.55859375t0.546875-2.36328125t0.7421875-1.40625q0.3125-0.3125,1.07421875-0.625t1.6015625-0.44921875t1.5625,0.1171875t0.87890625,1.03515625q-0.546875,0.703125-0.99609375,2.40234375t-0.68359375,3.76953125q-0.1953125,1.7578125-0.1953125,3.6328125l0,0.6640625q0.0390625,2.1875,0.390625,4.0234375t1.07421875,3.02734375t2.01171875,1.19140625q2.734375,0,5-2.51953125t4.0234375-6.15234375t3.0859375-7.71484375t2.265625-7.12890625q0.234375-0.8984375,1.11328125-1.2109375t1.89453125-0.21484375t1.81640625,0.48828125t0.95703125,0.9375q-0.78125,6.5625-1.23046875,13.125t-0.44921875,13.203125q0,1.2890625,0.1171875,2.36328125t-0.1171875,1.8359375t-1.03515625,1.2109375t-2.55859375,0.44921875q-0.390625,0-0.99609375-0.078125t-1.25-0.25390625t-1.09375-0.52734375t-0.44921875-0.8203125q0-2.890625,0.21484375-5.9375t0.60546875-5.8984375q-1.0546875,1.5234375-2.32421875,3.02734375t-2.79296875,2.71484375t-3.28125,1.93359375t-3.7890625,0.72265625q-2.890625,0-4.55078125-1.3671875t-2.5-3.41796875t-1.0546875-4.47265625t-0.21484375-4.6875z"/><path fill="#f9e814" d="M360.5234375,113.220703125q0-0.341796875,0.041015625-0.6904296875t0.041015625-0.6904296875l0-0.21875q0-0.423828125,0.3486328125-0.533203125t0.7177734375-0.109375q0.423828125,0,0.8134765625,0.177734375t0.3896484375,0.68359375q0.08203125,0.24609375,0.08203125,0.587890625l0,0.642578125q0,0.478515625-0.3349609375,0.6630859375t-0.8955078125,0.1845703125q-0.396484375,0-0.7998046875-0.1435546875t-0.4033203125-0.5537109375z M366.06970703125,108.572265625q0-1.2578125,0.2939453125-2.4677734375t0.4990234375-2.4130859375q0.0546875-0.314453125,0.4306640625-0.3896484375t0.6357421875-0.0751953125q0.451171875,0,0.724609375,0.13671875q0.109375,0.0546875,0.205078125,0.123046875t0.095703125,0.177734375q0,1.17578125-0.2802734375,2.296875t-0.2802734375,2.37890625q0,0.423828125,0.0615234375,0.7998046875t0.1162109375,0.7451171875l0.08203125,0.396484375q0,0.109375,0.013671875,0.19140625t0.041015625,0.19140625q0,0.24609375-0.3486328125,0.3349609375t-0.6083984375,0.0888671875q-0.396484375,0-0.7314453125-0.1572265625t-0.5263671875-0.5400390625l-0.19140625-0.396484375q-0.1640625-0.314453125-0.1640625-0.7041015625t-0.068359375-0.7177734375z M366.94470703125,100.341796875l0-0.259765625q0-0.642578125,0.3212890625-1.1484375t0.9638671875-0.505859375q0.08203125,0,0.1572265625,0.013671875t0.1572265625,0.013671875q0.1640625,0.02734375,0.4306640625,0.1298828125t0.2666015625,0.3212890625l0,0.02734375q-0.0546875,0.109375-0.068359375,0.2255859375t-0.068359375,0.1982421875l0.02734375-0.02734375q-0.1640625,0.423828125-0.2666015625,0.68359375t-0.2255859375,0.4169921875t-0.3076171875,0.2255859375t-0.5263671875,0.068359375q-0.0546875,0-0.19140625-0.013671875t-0.2939453125-0.0546875t-0.2666015625-0.109375t-0.109375-0.205078125z M372.0534765625,108.96875l0-0.396484375q0-0.4921875,0.02734375-0.9296875q0.02734375-0.615234375,0.02734375-1.01171875q0-0.21875,0.02734375-0.4990234375t0.13671875-0.4443359375q0.13671875-0.13671875,0.3212890625-0.2802734375t0.4033203125-0.1435546875q0.697265625,0,1.09375,0.1572265625t0.423828125,0.6494140625l0.0546875,0.423828125q0.24609375-0.587890625,0.65625-1.4560546875t0.9501953125-1.654296875t1.216796875-1.33984375t1.4287109375-0.5537109375q0.697265625,0,1.1484375,0.65625t0.7177734375,1.6748046875t0.3759765625,2.26953125t0.150390625,2.4541015625t0.0546875,2.1943359375t0.095703125,1.4970703125q0.0546875,0.423828125,0.1845703125,0.8955078125t0.1298828125,0.8681640625q0,0.109375-0.1572265625,0.2119140625t-0.3349609375,0.1708984375t-0.3623046875,0.109375t-0.2666015625,0.041015625q-0.533203125,0-0.7587890625-0.7998046875t-0.2802734375-2.0029296875t-0.0546875-2.6044921875t-0.095703125-2.6044921875t-0.3896484375-2.0029296875t-0.9365234375-0.8271484375q-0.587890625,0-1.216796875,0.7587890625t-1.080078125,2.0166015625q-0.4375,1.2578125-0.6015625,2.857421875q-0.0546875,0.505859375-0.0546875,1.01171875q0,1.107421875,0.232421875,2.21484375q0.02734375,0.19140625-0.1572265625,0.287109375t-0.4580078125,0.150390625t-0.5537109375,0.068359375t-0.4306640625,0.013671875q-0.533203125,0-0.8544921875-0.3759765625t-0.4990234375-0.9638671875t-0.2392578125-1.3193359375t-0.0751953125-1.4423828125z M384.47669921875,103.185546875q0-0.13671875,0.2119140625-0.232421875t0.505859375-0.13671875t0.560546875-0.068359375t0.4033203125-0.02734375q0.0546875-0.369140625,0.1572265625-0.998046875t0.2529296875-1.3466796875t0.3759765625-1.4423828125t0.546875-1.3125t0.7587890625-0.9638671875t1.025390625-0.3759765625l-0.02734375,0q0.19140625-0.02734375,0.3759765625-0.041015625t0.3759765625-0.013671875q0.451171875,0,0.9775390625,0.177734375t0.9775390625,0.4990234375t0.7587890625,0.7724609375t0.3076171875,0.95703125q0,0.396484375-0.1982421875,0.8544921875t-0.6904296875,0.4580078125q-0.1640625,0-0.3349609375-0.08203125t-0.3212890625-0.177734375q0.0546875-0.314453125,0.0546875-0.62890625q0-0.1640625-0.013671875-0.314453125q-0.041015625-0.478515625-0.205078125-0.8408203125t-0.4716796875-0.57421875t-0.7314453125-0.1572265625q-0.560546875,0.08203125-0.8408203125,0.68359375t-0.3896484375,1.4287109375t-0.13671875,1.681640625t-0.109375,1.3876953125q0.642578125,0.0546875,1.0869140625,0.0546875l1.1142578125,0q0.109375,0,0.3759765625,0.013671875t0.51953125,0.0546875t0.451171875,0.1435546875t0.1982421875,0.2666015625q0,0.13671875-0.109375,0.2392578125t-0.2666015625,0.1435546875t-0.328125,0.0546875t-0.2802734375,0.013671875q-0.478515625,0-0.8134765625-0.041015625t-0.642578125-0.0751953125t-0.642578125-0.0341796875t-0.7861328125,0.095703125q-0.13671875,1.517578125-0.21875,3.0078125t-0.08203125,3.0078125q0,2.37890625,0.150390625,4.662109375t0.546875,4.634765625q0.0546875,0.21875,0.095703125,0.4990234375t0.041015625,0.5400390625q0,0.24609375-0.150390625,0.4033203125t-0.3759765625,0.2255859375t-0.46484375,0.095703125t-0.4306640625,0.02734375q-0.779296875,0-1.09375-0.2392578125t-0.451171875-0.9638671875q-0.341796875-1.927734375-0.4375-3.8896484375t-0.095703125-3.9580078125q0-1.955078125,0.1435546875-3.9033203125t0.3623046875-3.8759765625q-0.109375,0-0.3759765625,0.013671875t-0.533203125,0t-0.46484375-0.095703125t-0.1982421875-0.287109375z M394.28859375,109.16015625q0-0.779296875,0.1982421875-1.6064453125t0.62890625-1.490234375t1.0869140625-1.080078125t1.5859375-0.4169921875q0.697265625,0,1.4697265625,0.2392578125t1.4150390625,0.68359375t1.0458984375,1.0869140625t0.4033203125,1.435546875q0,0.95703125-0.3486328125,1.818359375t-0.9775390625,1.5380859375t-1.4697265625,1.06640625t-1.8251953125,0.3896484375q-0.806640625,0-1.408203125-0.2939453125t-1.0048828125-0.7861328125t-0.6015625-1.162109375t-0.1982421875-1.421875z M396.298359375,109.1328125q0,0.24609375,0.0751953125,0.724609375t0.2255859375,0.9365234375t0.3896484375,0.79296875t0.5810546875,0.3076171875q0.724609375-0.08203125,1.1962890625-0.4716796875t0.765625-0.9501953125t0.41015625-1.216796875t0.1162109375-1.244140625q0-0.751953125-0.2939453125-1.2578125t-0.9638671875-0.8203125q0,0.02734375,0.02734375,0.02734375t0.02734375-0.02734375l-0.341796875-0.08203125q-0.13671875-0.0546875-0.3349609375-0.123046875t-0.3896484375-0.30078125q-0.533203125,0.19140625-0.8271484375,0.4921875t-0.4443359375,0.7314453125t-0.1845703125,1.0322265625t-0.0341796875,1.44921875z"/></svg>
